<svg xmlns="http://www.w3.org/2000/svg" viewBox="0 0 1060 220" width="1060" height="220">
  <defs>
    <linearGradient id="bolt" x1="0" y1="0" x2="1" y2="1">
      <stop offset="0" stop-color="#e6b325"/>
      <stop offset="1" stop-color="#b8860b"/>
    </linearGradient>
  </defs>
  <g transform="translate(10,10) scale(.39)">
    <g fill="#8c8c8c">
      <rect x="36"  y="96"  width="30" height="30" rx="5" opacity=".25"/>
      <rect x="92"  y="60"  width="30" height="30" rx="5" opacity=".35"/>
      <rect x="70"  y="170" width="30" height="30" rx="5" opacity=".35"/>
      <rect x="140" y="120" width="30" height="30" rx="5" opacity=".5"/>
      <rect x="118" y="230" width="30" height="30" rx="5" opacity=".5"/>
      <rect x="180" y="190" width="30" height="30" rx="5" opacity=".7" fill="#2c7fb8"/>
      <rect x="156" y="300" width="30" height="30" rx="5" opacity=".7" fill="#2c7fb8"/>
      <rect x="210" y="260" width="30" height="30" rx="5" opacity=".9" fill="#2c7fb8"/>
    </g>
    <polygon points="342,20 158,306 262,306 204,492 414,202 302,202 366,20" fill="url(#bolt)"/>
  </g>
  <text x="230" y="118" font-family="Menlo, SF Mono, Consolas, monospace" font-size="88"
        font-weight="700" fill="#2c7fb8">m<tspan fill="#d4a017">bolt</tspan></text>
  <text x="234" y="168" font-family="Menlo, SF Mono, Consolas, monospace" font-size="22"
        fill="#8c8c8c">PGO for LLM weights · 1.63× faster streaming</text>
</svg>
